<mxfile host="app.diagrams.net" agent="Mozilla/5.0 (Macintosh; Intel Mac OS X 10_15_7) AppleWebKit/537.36 (KHTML, like Gecko) Chrome/132.0.0.0 Safari/537.36 OPR/117.0.0.0 (Edition std-1)" version="26.0.11">
  <diagram id="C5RBs43oDa-KdzZeNtuy" name="Page-1">
    <mxGraphModel dx="1114" dy="604" grid="1" gridSize="10" guides="1" tooltips="1" connect="1" arrows="1" fold="1" page="1" pageScale="1" pageWidth="827" pageHeight="1169" math="0" shadow="0">
      <root>
        <mxCell id="WIyWlLk6GJQsqaUBKTNV-0" />
        <mxCell id="WIyWlLk6GJQsqaUBKTNV-1" parent="WIyWlLk6GJQsqaUBKTNV-0" />
        <mxCell id="WIyWlLk6GJQsqaUBKTNV-2" value="" style="rounded=0;html=1;jettySize=auto;orthogonalLoop=1;fontSize=11;endArrow=block;endFill=0;endSize=8;strokeWidth=1;shadow=0;labelBackgroundColor=none;edgeStyle=orthogonalEdgeStyle;entryX=0.5;entryY=0;entryDx=0;entryDy=0;" parent="WIyWlLk6GJQsqaUBKTNV-1" source="WIyWlLk6GJQsqaUBKTNV-3" target="qDJio6jiuVaOhA6iV4Uu-15" edge="1">
          <mxGeometry relative="1" as="geometry">
            <mxPoint x="230" y="200" as="targetPoint" />
            <Array as="points">
              <mxPoint x="230" y="150" />
            </Array>
          </mxGeometry>
        </mxCell>
        <mxCell id="WIyWlLk6GJQsqaUBKTNV-3" value="Lancement de l&#39;acquisition" style="rounded=1;whiteSpace=wrap;html=1;fontSize=12;glass=0;strokeWidth=1;shadow=0;fillColor=light-dark(#33FF33,var(--ge-dark-color, #121212));" parent="WIyWlLk6GJQsqaUBKTNV-1" vertex="1">
          <mxGeometry x="380" y="60" width="120" height="40" as="geometry" />
        </mxCell>
        <mxCell id="qDJio6jiuVaOhA6iV4Uu-4" value="Lancement Daemon Thread" style="text;html=1;align=center;verticalAlign=middle;whiteSpace=wrap;rounded=0;" vertex="1" parent="WIyWlLk6GJQsqaUBKTNV-1">
          <mxGeometry x="250" y="120" width="90" height="30" as="geometry" />
        </mxCell>
        <mxCell id="qDJio6jiuVaOhA6iV4Uu-15" value="Boucle d&#39;acquisition" style="swimlane;whiteSpace=wrap;html=1;startSize=40;fillColor=light-dark(#CCFFCC,var(--ge-dark-color, #121212));" vertex="1" parent="WIyWlLk6GJQsqaUBKTNV-1">
          <mxGeometry x="130" y="180" width="200" height="200" as="geometry" />
        </mxCell>
        <mxCell id="qDJio6jiuVaOhA6iV4Uu-8" value="Acquisition de données" style="rounded=0;whiteSpace=wrap;html=1;" vertex="1" parent="qDJio6jiuVaOhA6iV4Uu-15">
          <mxGeometry x="20" y="80" width="160" height="30" as="geometry" />
        </mxCell>
        <mxCell id="qDJio6jiuVaOhA6iV4Uu-26" value="Envoi dans la file d&#39;attente" style="text;html=1;align=center;verticalAlign=middle;whiteSpace=wrap;rounded=0;" vertex="1" parent="qDJio6jiuVaOhA6iV4Uu-15">
          <mxGeometry x="100" y="110" width="90" height="40" as="geometry" />
        </mxCell>
        <mxCell id="qDJio6jiuVaOhA6iV4Uu-30" value="" style="rounded=0;html=1;jettySize=auto;orthogonalLoop=1;fontSize=11;endArrow=block;endFill=0;endSize=8;strokeWidth=1;shadow=0;labelBackgroundColor=none;edgeStyle=orthogonalEdgeStyle;entryX=0.5;entryY=0;entryDx=0;entryDy=0;exitX=0.002;exitY=0.851;exitDx=0;exitDy=0;exitPerimeter=0;" edge="1" parent="qDJio6jiuVaOhA6iV4Uu-15" source="qDJio6jiuVaOhA6iV4Uu-26" target="qDJio6jiuVaOhA6iV4Uu-8">
          <mxGeometry relative="1" as="geometry">
            <mxPoint x="84" y="150" as="sourcePoint" />
            <mxPoint x="-40" y="180" as="targetPoint" />
            <Array as="points">
              <mxPoint x="100" y="150" />
              <mxPoint x="10" y="150" />
              <mxPoint x="10" y="50" />
              <mxPoint x="100" y="50" />
            </Array>
          </mxGeometry>
        </mxCell>
        <mxCell id="qDJio6jiuVaOhA6iV4Uu-31" value="Nouvelle acquisition" style="text;html=1;align=center;verticalAlign=middle;whiteSpace=wrap;rounded=0;" vertex="1" parent="qDJio6jiuVaOhA6iV4Uu-15">
          <mxGeometry x="20" y="150" width="60" height="30" as="geometry" />
        </mxCell>
        <mxCell id="qDJio6jiuVaOhA6iV4Uu-16" value="File d&#39;attente" style="swimlane;fontStyle=0;childLayout=stackLayout;horizontal=1;startSize=30;horizontalStack=0;resizeParent=1;resizeParentMax=0;resizeLast=0;collapsible=1;marginBottom=0;whiteSpace=wrap;html=1;" vertex="1" parent="WIyWlLk6GJQsqaUBKTNV-1">
          <mxGeometry x="370" y="190" width="140" height="150" as="geometry">
            <mxRectangle x="370" y="190" width="110" height="30" as="alternateBounds" />
          </mxGeometry>
        </mxCell>
        <mxCell id="qDJio6jiuVaOhA6iV4Uu-17" value="Prochaines données" style="text;strokeColor=none;fillColor=none;align=left;verticalAlign=middle;spacingLeft=4;spacingRight=4;overflow=hidden;points=[[0,0.5],[1,0.5]];portConstraint=eastwest;rotatable=0;whiteSpace=wrap;html=1;" vertex="1" parent="qDJio6jiuVaOhA6iV4Uu-16">
          <mxGeometry y="30" width="140" height="30" as="geometry" />
        </mxCell>
        <mxCell id="qDJio6jiuVaOhA6iV4Uu-18" value="Données suivantes" style="text;strokeColor=none;fillColor=none;align=left;verticalAlign=middle;spacingLeft=4;spacingRight=4;overflow=hidden;points=[[0,0.5],[1,0.5]];portConstraint=eastwest;rotatable=0;whiteSpace=wrap;html=1;" vertex="1" parent="qDJio6jiuVaOhA6iV4Uu-16">
          <mxGeometry y="60" width="140" height="30" as="geometry" />
        </mxCell>
        <mxCell id="qDJio6jiuVaOhA6iV4Uu-19" value="..." style="text;strokeColor=none;fillColor=none;align=left;verticalAlign=middle;spacingLeft=4;spacingRight=4;overflow=hidden;points=[[0,0.5],[1,0.5]];portConstraint=eastwest;rotatable=0;whiteSpace=wrap;html=1;" vertex="1" parent="qDJio6jiuVaOhA6iV4Uu-16">
          <mxGeometry y="90" width="140" height="30" as="geometry" />
        </mxCell>
        <mxCell id="qDJio6jiuVaOhA6iV4Uu-21" value="Dernières données" style="text;strokeColor=none;fillColor=none;align=left;verticalAlign=middle;spacingLeft=4;spacingRight=4;overflow=hidden;points=[[0,0.5],[1,0.5]];portConstraint=eastwest;rotatable=0;whiteSpace=wrap;html=1;" vertex="1" parent="qDJio6jiuVaOhA6iV4Uu-16">
          <mxGeometry y="120" width="140" height="30" as="geometry" />
        </mxCell>
        <mxCell id="qDJio6jiuVaOhA6iV4Uu-22" value="" style="rounded=0;html=1;jettySize=auto;orthogonalLoop=1;fontSize=11;endArrow=block;endFill=0;endSize=8;strokeWidth=1;shadow=0;labelBackgroundColor=none;edgeStyle=orthogonalEdgeStyle;exitX=0.5;exitY=1;exitDx=0;exitDy=0;entryX=0;entryY=0.5;entryDx=0;entryDy=0;" edge="1" parent="WIyWlLk6GJQsqaUBKTNV-1" source="qDJio6jiuVaOhA6iV4Uu-8" target="qDJio6jiuVaOhA6iV4Uu-21">
          <mxGeometry relative="1" as="geometry">
            <mxPoint x="374" y="440" as="sourcePoint" />
            <mxPoint x="230" y="325" as="targetPoint" />
            <Array as="points">
              <mxPoint x="230" y="325" />
            </Array>
          </mxGeometry>
        </mxCell>
        <mxCell id="qDJio6jiuVaOhA6iV4Uu-27" value="Boucle de calculs" style="swimlane;whiteSpace=wrap;html=1;fillColor=light-dark(#CCE5FF,var(--ge-dark-color, #121212));" vertex="1" parent="WIyWlLk6GJQsqaUBKTNV-1">
          <mxGeometry x="570" y="180" width="200" height="200" as="geometry" />
        </mxCell>
        <mxCell id="qDJio6jiuVaOhA6iV4Uu-32" value="Récupérer la prochaine valeur dans la file" style="rounded=0;whiteSpace=wrap;html=1;" vertex="1" parent="qDJio6jiuVaOhA6iV4Uu-27">
          <mxGeometry x="30" y="30" width="140" height="40" as="geometry" />
        </mxCell>
        <mxCell id="qDJio6jiuVaOhA6iV4Uu-34" value="Curve Fit" style="rounded=0;whiteSpace=wrap;html=1;" vertex="1" parent="qDJio6jiuVaOhA6iV4Uu-27">
          <mxGeometry x="30" y="90" width="140" height="35" as="geometry" />
        </mxCell>
        <mxCell id="qDJio6jiuVaOhA6iV4Uu-35" value="" style="rounded=0;html=1;jettySize=auto;orthogonalLoop=1;fontSize=11;endArrow=block;endFill=0;endSize=8;strokeWidth=1;shadow=0;labelBackgroundColor=none;edgeStyle=orthogonalEdgeStyle;exitX=0.5;exitY=1;exitDx=0;exitDy=0;entryX=0.5;entryY=0;entryDx=0;entryDy=0;" edge="1" parent="qDJio6jiuVaOhA6iV4Uu-27" source="qDJio6jiuVaOhA6iV4Uu-32" target="qDJio6jiuVaOhA6iV4Uu-34">
          <mxGeometry relative="1" as="geometry">
            <mxPoint x="40" y="65" as="sourcePoint" />
            <mxPoint x="-70" y="65" as="targetPoint" />
            <Array as="points" />
          </mxGeometry>
        </mxCell>
        <mxCell id="qDJio6jiuVaOhA6iV4Uu-36" value="Prédiction de la puissance" style="rounded=0;whiteSpace=wrap;html=1;" vertex="1" parent="qDJio6jiuVaOhA6iV4Uu-27">
          <mxGeometry x="30" y="150" width="140" height="35" as="geometry" />
        </mxCell>
        <mxCell id="qDJio6jiuVaOhA6iV4Uu-37" value="" style="rounded=0;html=1;jettySize=auto;orthogonalLoop=1;fontSize=11;endArrow=block;endFill=0;endSize=8;strokeWidth=1;shadow=0;labelBackgroundColor=none;edgeStyle=orthogonalEdgeStyle;exitX=0.5;exitY=1;exitDx=0;exitDy=0;" edge="1" parent="qDJio6jiuVaOhA6iV4Uu-27" source="qDJio6jiuVaOhA6iV4Uu-34">
          <mxGeometry relative="1" as="geometry">
            <mxPoint x="99.54999999999995" y="180" as="sourcePoint" />
            <mxPoint x="100" y="150" as="targetPoint" />
            <Array as="points" />
          </mxGeometry>
        </mxCell>
        <mxCell id="qDJio6jiuVaOhA6iV4Uu-33" value="" style="rounded=0;html=1;jettySize=auto;orthogonalLoop=1;fontSize=11;endArrow=block;endFill=0;endSize=8;strokeWidth=1;shadow=0;labelBackgroundColor=none;edgeStyle=orthogonalEdgeStyle;exitX=0;exitY=0.5;exitDx=0;exitDy=0;entryX=1;entryY=0.5;entryDx=0;entryDy=0;" edge="1" parent="WIyWlLk6GJQsqaUBKTNV-1" source="qDJio6jiuVaOhA6iV4Uu-32" target="qDJio6jiuVaOhA6iV4Uu-17">
          <mxGeometry relative="1" as="geometry">
            <mxPoint x="540" y="420" as="sourcePoint" />
            <mxPoint x="680" y="455" as="targetPoint" />
            <Array as="points">
              <mxPoint x="530" y="235" />
              <mxPoint x="530" y="235" />
            </Array>
          </mxGeometry>
        </mxCell>
        <mxCell id="qDJio6jiuVaOhA6iV4Uu-39" value="Boucle de mise à jour de l&#39;interface" style="swimlane;whiteSpace=wrap;html=1;startSize=50;" vertex="1" parent="WIyWlLk6GJQsqaUBKTNV-1">
          <mxGeometry x="340" y="410" width="200" height="120" as="geometry" />
        </mxCell>
        <mxCell id="qDJio6jiuVaOhA6iV4Uu-40" value="Mise à jour des éléments d&#39;interface" style="rounded=0;whiteSpace=wrap;html=1;" vertex="1" parent="qDJio6jiuVaOhA6iV4Uu-39">
          <mxGeometry x="25" y="60" width="150" height="40" as="geometry" />
        </mxCell>
        <mxCell id="qDJio6jiuVaOhA6iV4Uu-41" value="" style="rounded=0;html=1;jettySize=auto;orthogonalLoop=1;fontSize=11;endArrow=block;endFill=0;endSize=8;strokeWidth=1;shadow=0;labelBackgroundColor=none;edgeStyle=orthogonalEdgeStyle;exitX=0.5;exitY=1;exitDx=0;exitDy=0;entryX=0.5;entryY=0;entryDx=0;entryDy=0;" edge="1" parent="WIyWlLk6GJQsqaUBKTNV-1" source="qDJio6jiuVaOhA6iV4Uu-36" target="qDJio6jiuVaOhA6iV4Uu-39">
          <mxGeometry relative="1" as="geometry">
            <mxPoint x="485" y="380" as="sourcePoint" />
            <mxPoint x="395" y="385" as="targetPoint" />
            <Array as="points">
              <mxPoint x="670" y="390" />
              <mxPoint x="440" y="390" />
            </Array>
          </mxGeometry>
        </mxCell>
        <mxCell id="qDJio6jiuVaOhA6iV4Uu-42" value="Envoi des paramètres" style="text;html=1;align=center;verticalAlign=middle;whiteSpace=wrap;rounded=0;" vertex="1" parent="WIyWlLk6GJQsqaUBKTNV-1">
          <mxGeometry x="450" y="360" width="90" height="30" as="geometry" />
        </mxCell>
      </root>
    </mxGraphModel>
  </diagram>
</mxfile>
